<svg width="250" height="48" viewBox="0 0 250 48" fill="none" xmlns="http://www.w3.org/2000/svg">
<g clip-path="url(#clip0_3_3624)">
<path fill-rule="evenodd" clip-rule="evenodd" d="M32.7079 29.0259L24.8279 32.5679L23.5359 34.4119C23.4719 34.5039 23.3479 34.5259 23.2559 34.4619L15.402 28.9619C15.31 28.8979 15.288 28.7719 15.352 28.6819L16.654 26.8439L17.288 18.2279C17.3 18.0719 17.476 17.9879 17.604 18.0779L32.7419 28.6779C32.8699 28.7679 32.8499 28.9619 32.7079 29.0259ZM21.5399 35.6019L20.344 37.3119C20.284 37.3819 20.184 37.4079 20.1 37.4079L10.724 37.4119C10.598 37.3679 10.548 37.2159 10.624 37.1059L14.926 30.9719C14.99 30.8819 15.116 30.8599 15.206 30.9219L21.4899 35.3219C21.5819 35.3859 21.6039 35.5119 21.5399 35.6019ZM29.8299 0L18.456 16.2439C18.37 16.368 18.4 16.538 18.522 16.624L33.7919 27.3159C33.9159 27.4039 34.0879 27.3739 34.1739 27.2499L47.7699 7.82998C47.9199 8.51597 47.9999 9.22797 47.9999 9.95597V38.0439C47.9999 43.5439 43.5419 47.9999 38.0439 47.9999H9.95598C4.45599 47.9999 0 43.5419 0 38.0439V9.95597C0 4.45599 4.45799 0 9.95598 0H29.8299ZM79.5298 3.94199V33.5839H96.0638V43.3719H67.8298V3.93999L79.5298 3.94199ZM116.702 3.94199V43.3699H105V3.94199H116.7H116.702ZM135.65 3.94199L152.356 25.9359V3.93999H163.042V43.3699H153.086L136.382 21.4339V43.3699H125.638V3.93999L135.65 3.94199ZM204.208 3.94199V12.942H183.678V19.1299H202.296V28.1299H183.678V34.3719H204.77V43.3719H171.98V3.93999L204.208 3.94199ZM232.099 3.94199L232.883 3.95199C237.793 4.06799 241.629 5.28398 244.389 7.59798L244.795 7.95398C247.429 10.368 248.749 13.698 248.749 17.9479L248.737 18.6619C248.649 21.2499 248.081 23.5139 247.033 25.4559L246.737 25.9759C245.611 27.8519 244.071 29.3559 242.111 30.4919L250.097 43.3719H236.823L231.593 32.7399H225.407V43.3719H213.707V3.93999L232.099 3.94199ZM232.099 12.942H225.407V23.7419H232.099L232.569 23.7299C234.105 23.6519 235.309 23.1879 236.177 22.3339L236.427 22.0699C237.217 21.1499 237.611 19.8899 237.611 18.2859L237.599 17.8259C237.519 16.326 237.047 15.156 236.179 14.32L235.907 14.08C234.971 13.322 233.701 12.942 232.099 12.942Z" fill="url(#paint0_linear_3_3624)"/>
</g>
<defs>
<linearGradient id="paint0_linear_3_3624" x1="32.9153" y1="24.8841" x2="240.353" y2="-20.9683" gradientUnits="userSpaceOnUse">
<stop stop-color="#00B1E2"/>
<stop offset="1" stop-color="#00D4B7"/>
</linearGradient>
<clipPath id="clip0_3_3624">
<rect width="250" height="47.9999" fill="white"/>
</clipPath>
</defs>
</svg>
