<svg width="24" height="24" viewBox="0 0 24 24" fill="none" xmlns="http://www.w3.org/2000/svg">
<path d="M17.1199 3C17.5199 3 17.8999 3.16 18.1799 3.44C18.4599 3.72 18.6199 4.1 18.6199 4.5V20.83L12.5499 18.35C12.3699 18.28 12.1699 18.24 11.9799 18.24C11.7899 18.24 11.5899 18.28 11.4099 18.35L5.36988 20.83V4.51C5.36988 3.68 6.03988 3.01 6.86988 3.01H17.1199V3ZM17.1199 1.5H6.87988C5.21988 1.5 3.87988 2.84 3.87988 4.5V21.31C3.87988 22 4.44988 22.49 5.05988 22.49C5.25988 22.49 5.46988 22.44 5.65988 22.32L11.9799 19.73L18.3299 22.33C18.5199 22.45 18.7299 22.5 18.9299 22.5C19.5499 22.5 20.1099 22.01 20.1099 21.32V4.5C20.1199 2.84 18.7799 1.5 17.1199 1.5Z" fill="#959CA6"/>
</svg>
